# xmcd
#
# Track frame offsets:
# 300
# 15948
# 40746
# 63069
# 93192
# 117915
# 138588
# 161286
#
# Disc length: 2400 seconds
#
#
# Revision: 0
# Processed by: cddbd v1.5.2PL0 Copyright (c) Steve Scherf et al.
# Submitted via: FreeRIP 2.942 
#
DISCID=55095c08
DTITLE=Magnolia Beacon - Full Moon Party
DYEAR=2008
DGENRE=Gypsy-Country
TTITLE0=Black Mountain (J.C. Lohnson)
TTITLE1=The Same Cold Wind
TTITLE2=Jolene (Dolly Parton)
TTITLE3=Nativity (Luke Allen)
TTITLE4=Thieves
TTITLE5=Waiting
TTITLE6=Walking
TTITLE7=Careless Love (W.C. Handy)
EXTD=MagnoliaBeacon@gmail.com\nhttp://www.myspace.com/magnoliabeacon
EXTT0=
EXTT1=
EXTT2=
EXTT3=
EXTT4=
EXTT5=
EXTT6=
EXTT7=
PLAYORDER=
